<svg width="284" height="284" viewBox="0 0 284 284" fill="none" xmlns="http://www.w3.org/2000/svg">
<rect x="64" y="64" width="81.6562" height="78" rx="12" fill="#2D7BE4"/>
<path d="M138.344 142H220V208C220 214.627 214.627 220 208 220H150.344C143.716 220 138.344 214.627 138.344 208V142Z" fill="#2D7BE4"/>
<ellipse cx="142" cy="142" rx="78" ry="78" transform="rotate(90 142 142)" fill="#2D7BE4"/>
<path d="M103 142.914C103 132.49 107.109 122.493 114.423 115.121C121.737 107.75 131.657 103.609 142 103.609C152.343 103.609 162.263 107.75 169.577 115.121C176.891 122.493 181 132.49 181 142.914L142 142.914L103 142.914Z" fill="#F9B836"/>
<path d="M181 142.914C181 158.51 174.837 173.467 163.866 184.495C152.895 195.523 138.015 201.719 122.5 201.719C106.985 201.719 92.1051 195.523 81.1343 184.495C70.1634 173.467 64 158.51 64 142.914L122.5 142.914L181 142.914Z" fill="#E9683F"/>
<path d="M142 142.609C142 147.781 139.946 152.741 136.289 156.398C132.632 160.055 127.672 162.109 122.5 162.109C117.328 162.109 112.368 160.055 108.711 156.398C105.054 152.741 103 147.781 103 142.609L122.5 142.609L142 142.609Z" fill="#F9B836"/>
</svg>
